<?xml version="1.0" encoding="UTF-8"?>
<svg width="1200pt" height="1200pt" version="1.1" viewBox="0 0 1200 1200" xmlns="http://www.w3.org/2000/svg">
 <path d="m590.29 419.29c35.484 0 64.266 28.781 64.266 64.266 0 35.438-28.641 64.172-64.078 64.266 78.844 0.09375 142.74 64.078 142.74 142.97 0 2.2031-0.046875 4.4531-0.14062 6.6094h-285.56c-0.09375-2.2031-0.14062-4.4062-0.14062-6.6094 0-78.891 63.891-142.82 142.74-142.97-35.391-0.09375-64.078-28.828-64.078-64.266 0-35.484 28.781-64.266 64.266-64.266zm0 636.32c22.781 0 45.188-1.6875 67.078-4.875l16.641-89.766 3.2344-0.65625c-12.234-27.188-19.031-57.328-19.031-89.062 0-20.25 2.7656-39.844 7.9688-58.453-23.766 8.2969-49.312 12.797-75.891 12.797-127.55 0-230.95-103.41-230.95-230.95 0-127.55 103.41-230.9 230.95-230.9 127.5 0 230.9 103.41 230.9 230.9 0 24.094-3.7031 47.297-10.547 69.141 20.484-6.4219 42.281-9.8438 64.828-9.8438 32.109 0 62.578 6.9844 90.047 19.5 0.375-1.6875 0.70312-3.3281 1.0312-5.0156l80.953-14.953c2.4375-19.266 3.7031-38.859 3.7031-58.781 0-19.922-1.2656-39.516-3.7031-58.781l-80.953-15c-9.7031-48.375-28.734-93.422-55.172-133.08l47.812-69.516c-23.391-31.172-50.672-59.297-81.047-83.625l-71.062 48.844c-39.656-26.438-84.703-45.469-133.08-55.172l-16.641-89.766c-21.891-3.1875-44.297-4.875-67.078-4.875s-45.234 1.6875-67.125 4.875l-16.641 89.766c-48.422 9.7031-93.422 28.734-133.08 55.172l-71.016-48.844c-30.422 24.328-57.703 52.453-81.094 83.625l47.812 69.516c-26.438 39.656-45.469 84.703-55.172 133.08l-80.953 15c-2.4375 19.219-3.7031 38.859-3.7031 58.781 0 19.922 1.2656 39.516 3.7031 58.781l80.953 14.953c9.7031 48.422 28.734 93.422 55.172 133.08l-47.812 69.516c23.391 31.172 50.672 59.297 81.094 83.625l71.016-48.844c39.656 26.438 84.703 45.469 133.08 55.172l16.641 89.766c21.938 3.1875 44.344 4.875 67.125 4.875zm285.28-379.5c-107.77 0-195.1 87.375-195.1 195.1 0 107.77 87.328 195.1 195.1 195.1 107.72 0 195.1-87.375 195.1-195.1 0-107.72-87.375-195.1-195.1-195.1zm-106.73 202.08c-9.1406-11.203-7.4062-27.938 3.8438-37.078 11.203-9.1406 27.938-7.4062 37.078 3.8438l42.281 52.078 26.672-32.766 16.172-19.922 0.09375-0.09375 46.312-57c9.1406-11.203 25.828-12.984 37.078-3.8438 11.203 9.1406 12.984 25.828 3.8438 37.078l-46.406 57.141-16.219 19.922 0.046874-0.046876-46.406 57.094c-1.4062 1.7344-2.9531 3.2344-4.6406 4.4531-11.203 9.1406-27.984 7.4062-37.078-3.8438z" fill="#12b0fb" fill-rule="evenodd"/>
</svg>
