<?xml version="1.0" encoding="UTF-8"?>
<svg width="1200pt" height="1200pt" version="1.1" viewBox="0 0 1200 1200" xmlns="http://www.w3.org/2000/svg">
 <path d="m368.84 497.18v-232.22c0-78.398 63.562-141.98 141.98-141.98h178.41c78.398 0 141.98 63.562 141.98 141.98v232.22h116.65v-236.6c-0.046875-143.91-116.72-260.58-260.62-260.58h-174.45c-143.93 0-260.6 116.67-260.6 260.58v236.6z" fill="#007335"/>
 <path d="m252.19 552.35v476.51c0 94.523 76.617 171.14 171.14 171.14h353.34c94.523 0 171.14-76.617 171.14-171.14v-476.51zm482.27 467.6c-9.1641 8.5781-21.117 13.289-33.68 13.289-13.594 0-26.742-5.6953-36.023-15.633l-64.758-69.234-64.758 69.234c-9.2812 9.9375-22.43 15.633-36.023 15.633-12.539 0-24.516-4.7344-33.68-13.289-9.6094-9-15.164-21.188-15.609-34.359-0.44531-13.172 4.2656-25.711 13.266-35.32l69.281-74.086-69.281-74.086c-18.562-19.852-17.531-51.117 2.3438-69.703 9.6094-9 22.172-13.734 35.32-13.266 13.172 0.44531 25.359 5.9766 34.359 15.609l64.781 69.234 64.758-69.234c18.562-19.852 49.828-20.906 69.68-2.3438s20.906 49.828 2.3438 69.703l-69.281 74.086 69.281 74.086c18.586 19.828 17.531 51.094-2.3203 69.68z" fill="#007335"/>
</svg>
