<?xml version="1.0" encoding="UTF-8"?>
<svg width="1200pt" height="1200pt" version="1.1" viewBox="0 0 1200 1200" xmlns="http://www.w3.org/2000/svg">
 <path d="m666.22 160.33c-13.652-23.656-38.906-38.23-66.223-38.23-27.305 0-52.547 14.574-66.211 38.234l-463.54 802.88c-13.676 23.66-13.676 52.809 0 76.465 13.664 23.66 38.895 38.234 66.211 38.234h927.08c27.328 0 52.57-14.574 66.211-38.234 13.652-23.652 13.652-52.805 0-76.465zm-66.223 841.11c-42.223 0-76.465-34.234-76.465-76.465 0-42.23 34.242-76.465 76.465-76.465 42.234 0 76.465 34.234 76.465 76.465 0 42.23-34.23 76.465-76.465 76.465zm57.352-229.39h-114.69l-19.125-382.32h152.93z" fill="#ffd65b"/>
</svg>
