<?xml version="1.0" encoding="UTF-8"?>
<svg width="1200pt" height="1200pt" version="1.1" viewBox="0 0 1200 1200" xmlns="http://www.w3.org/2000/svg">
 <path d="m561.9 225-89.062-112.5h-435.34v881.25h468.75v-75h-393.75v-731.25h324.04l89.062 112.5h449.4v206.25h75v-281.25z" fill="#fff"/>
 <path d="m975 637.5c0-44.754-17.777-87.676-49.426-119.32-31.648-31.648-74.57-49.426-119.32-49.426s-87.676 17.777-119.32 49.426c-31.648 31.648-49.426 74.57-49.426 119.32v75h-75v412.5h487.5v-412.5h-75zm-262.5 0c0-33.492 17.867-64.441 46.875-81.191 29.008-16.746 64.742-16.746 93.75 0 29.008 16.75 46.875 47.699 46.875 81.191v75h-187.5zm262.5 412.5h-337.5v-262.5h337.5z" fill="#fff"/>
</svg>
