<svg xmlns:dc="http://purl.org/dc/elements/1.1/" xmlns:cc="http://creativecommons.org/ns#" xmlns:rdf="http://www.w3.org/1999/02/22-rdf-syntax-ns#" xmlns:svg="http://www.w3.org/2000/svg" xmlns="http://www.w3.org/2000/svg" xmlns:sodipodi="http://sodipodi.sourceforge.net/DTD/sodipodi-0.dtd" xmlns:inkscape="http://www.inkscape.org/namespaces/inkscape" width="2381" height="712" viewBox="0 0 2381 712" fill="none" version="1.1" id="svg14" sodipodi:docname="checkov.svg" inkscape:version="1.0.2 (e86c8708, 2021-01-15)">
  <metadata id="metadata20">
    <rdf:rdf>
      <cc:work rdf:about="">
        <dc:format>image/svg+xml</dc:format>
        <dc:type rdf:resource="http://purl.org/dc/dcmitype/StillImage"></dc:type>
      </cc:work>
    </rdf:rdf>
  </metadata>
  <defs id="defs18">
    <style id="style561">
      .cls-1 {
        fill: #072882;
      }
    </style>
  </defs>
  <sodipodi:namedview pagecolor="#ffffff" bordercolor="#666666" borderopacity="1" objecttolerance="10" gridtolerance="10" guidetolerance="10" inkscape:pageopacity="0" inkscape:pageshadow="2" inkscape:window-width="1252" inkscape:window-height="766" id="namedview16" showgrid="false" inkscape:zoom="0.24917163" inkscape:cx="1486.4471" inkscape:cy="163.23133" inkscape:window-x="61" inkscape:window-y="826" inkscape:window-maximized="0" inkscape:current-layer="svg14" inkscape:document-rotation="0"></sodipodi:namedview>
  <path fill-rule="evenodd" clip-rule="evenodd" d="M2255.22 467.306H2169.25L2041.39 132.253H2138.38L2211.13 340.566L2283.87 132.253H2380.88L2255.22 467.306ZM1987.38 423.218C1921.24 490.447 1814.32 490.447 1747.08 425.423C1730.55 408.897 1717.31 389.052 1708.5 367.014C1699.68 344.964 1695.27 320.721 1695.27 297.58C1695.27 273.325 1699.68 249.082 1708.5 227.044C1717.31 206.096 1729.45 187.366 1744.88 170.828C1760.31 155.405 1779.04 142.175 1798.89 133.355C1819.83 124.547 1842.97 120.137 1865.02 120.137C1888.17 120.137 1910.21 124.547 1932.26 132.253C1952.1 139.97 1970.83 152.098 1986.27 168.623C2001.7 185.161 2014.93 203.891 2022.64 224.839C2031.46 247.98 2035.88 272.223 2035.88 297.58C2035.88 321.823 2031.46 344.964 2022.64 367.014C2014.93 387.95 2002.8 406.692 1987.38 423.218ZM1944.38 260.107C1939.98 249.082 1934.47 239.16 1925.65 231.454C1917.93 223.737 1909.11 217.121 1898.09 212.711C1877.15 203.891 1852.9 203.891 1831.95 212.711C1822.03 217.121 1812.11 222.634 1805.5 231.454C1797.79 240.262 1791.18 249.082 1787.87 260.107C1783.45 272.223 1781.24 284.35 1781.24 297.58C1781.24 309.696 1783.45 321.823 1787.87 333.951C1792.28 344.964 1797.79 354.887 1805.5 362.604C1813.22 370.322 1822.03 376.937 1831.95 381.335C1841.87 385.745 1854 387.95 1865.02 387.95C1876.05 387.95 1887.07 385.745 1898.09 381.335C1908 376.937 1917.93 370.322 1925.65 362.604C1933.36 353.784 1939.98 344.964 1944.38 333.951C1953.2 310.798 1953.2 284.35 1944.38 260.107ZM1592.76 467.306L1524.42 346.067L1464.9 424.32V467.306H1378.93V0H1464.9V295.375L1591.66 134.458H1689.76L1578.43 273.325L1689.76 468.409L1592.76 467.306ZM1262.08 239.16C1256.57 232.557 1251.06 225.942 1243.35 221.532C1236.74 217.121 1229.02 212.711 1221.31 210.506C1213.58 208.301 1204.77 207.199 1197.05 207.199C1186.03 207.199 1173.91 209.404 1163.99 214.916C1154.06 219.327 1144.14 227.044 1137.53 234.75C1129.81 243.57 1123.2 254.595 1119.9 265.62C1115.49 277.735 1113.28 292.068 1113.28 305.298C1113.28 316.311 1115.49 327.336 1119.9 338.361C1124.3 348.272 1129.81 357.092 1137.53 364.809C1145.24 372.527 1154.06 379.13 1163.99 382.437C1181.62 390.155 1202.56 391.257 1221.31 385.745C1229.02 383.54 1236.74 380.232 1243.35 375.834C1249.96 371.424 1256.57 365.912 1260.98 360.399C1266.49 353.784 1270.9 347.169 1274.21 339.464L1337.04 402.282C1329.32 413.295 1320.51 423.218 1309.48 433.14C1299.57 441.961 1288.55 449.666 1276.41 456.281C1264.29 462.896 1252.17 467.306 1238.94 470.614C1225.72 473.921 1211.38 475.024 1198.15 475.024C1175.01 475.024 1152.96 470.614 1132.02 461.794C1091.23 444.166 1058.17 412.205 1040.54 371.424C1031.71 350.477 1027.3 328.439 1027.3 305.298C1027.3 281.043 1031.71 256.8 1040.54 233.647C1049.35 211.609 1061.48 192.878 1076.9 175.238C1092.33 158.713 1111.08 145.483 1130.92 135.56C1151.86 125.638 1173.91 121.24 1197.05 121.24C1211.38 121.24 1224.62 123.445 1237.84 126.74C1265.39 133.355 1289.65 147.688 1309.48 167.521C1319.4 177.443 1329.32 188.468 1335.93 201.686L1273.11 264.517C1272 253.492 1267.59 245.775 1262.08 239.16ZM855.357 387.95C858.663 387.95 861.969 387.95 865.275 387.95C872.99 387.95 881.806 386.847 889.52 384.642C897.235 382.437 904.949 379.13 911.573 374.732C924.798 365.912 935.818 353.784 942.431 338.361L1005.26 401.18C997.545 412.205 988.729 422.115 977.708 432.038C967.778 440.858 956.757 448.576 944.635 455.179C932.512 461.794 920.39 466.204 907.153 469.511C892.827 472.819 878.5 473.921 865.275 473.921C820.079 473.921 775.986 456.281 744.026 424.32C728.598 407.795 715.361 389.052 707.647 368.117C698.83 346.067 694.422 321.823 694.422 296.478C694.422 271.12 698.83 246.877 707.647 223.737C724.189 181.853 757.251 148.79 799.141 132.253C820.079 123.445 843.222 119.035 865.275 119.035C879.602 119.035 892.827 120.137 906.051 124.547C945.737 134.458 981.014 158.713 1005.26 192.878L845.427 385.745C848.745 386.847 852.051 387.95 855.357 387.95ZM888.418 209.404C885.112 208.301 880.704 207.199 876.296 206.096C871.888 206.096 868.582 204.994 864.173 204.994C853.153 204.994 842.12 207.199 831.1 211.609C821.181 216.019 811.263 221.532 804.651 230.352C796.936 238.057 790.324 247.98 787.018 259.005C782.598 271.12 780.394 283.248 780.394 296.478C780.394 299.785 780.394 303.093 780.394 307.491C780.394 311.901 781.496 315.208 781.496 319.618C781.496 324.028 782.598 327.336 783.712 331.746C784.814 335.054 785.916 338.361 788.12 341.656L888.418 209.404ZM565.458 276.633C566.56 267.825 564.356 260.107 561.05 251.287C554.438 235.852 542.315 223.737 526.875 217.121C519.16 213.814 510.344 211.609 502.63 211.609C476.181 211.609 453.026 227.044 443.107 251.287C439.801 259.005 437.597 267.825 437.597 276.633V467.306H352.727V0H437.597V147.688C447.515 139.97 457.434 134.458 469.568 131.15C480.589 127.843 491.609 126.74 502.63 126.74C522.467 126.74 542.315 130.048 561.05 138.868C578.683 146.585 595.226 157.61 608.45 170.828C621.675 185.161 632.695 200.584 640.41 218.224C648.124 236.955 652.532 256.8 652.532 276.633V467.306H566.56L565.458 276.633ZM235.886 239.16C230.376 232.557 224.866 225.942 217.139 221.532C210.527 217.121 202.813 212.711 195.098 210.506C187.384 208.301 178.568 207.199 170.853 207.199C159.833 207.199 147.698 209.404 137.78 214.916C127.862 219.327 117.943 227.044 111.331 234.75C103.617 242.467 97.0042 253.492 92.584 264.517C88.1758 276.633 85.9717 290.965 85.9717 304.195C85.9717 315.208 88.1758 326.233 92.584 337.259C97.0042 347.169 102.514 355.989 110.229 363.707C117.943 371.424 126.759 378.027 136.678 381.335C154.311 389.052 175.262 390.155 193.996 384.642C201.711 382.437 209.425 379.13 216.037 374.732C222.662 370.322 229.274 364.809 233.682 359.297C239.192 352.682 243.601 346.067 246.907 338.361L309.735 401.18C302.021 412.205 293.205 422.115 282.184 432.038C272.254 440.858 261.233 448.576 249.111 455.179C236.988 461.794 224.866 466.204 211.629 469.511C198.405 472.819 184.078 473.921 170.853 473.921C147.698 473.921 125.657 469.511 104.719 460.691C63.9308 443.063 30.8573 411.102 13.2245 370.322C4.40818 349.374 0 327.336 0 304.195C0 279.94 4.40818 255.697 13.2245 232.557C22.0409 210.506 34.1755 191.776 49.6042 174.136C65.0328 157.61 83.7676 144.38 103.617 134.458C124.555 124.547 146.596 120.137 169.751 120.137C184.078 120.137 197.303 122.342 210.527 125.65C238.09 132.253 262.335 146.585 282.184 166.418C292.103 176.341 302.021 187.366 308.633 200.584L245.805 263.415C245.805 253.492 241.396 245.775 235.886 239.16Z" fill="#052882" id="path10"></path>
  <path id="path647" fill="black" d="m 2270.7095,580.96545 h 50.587 c 33.6532,0 53.588,19.72036 53.588,52.94488 0,33.22452 -19.7204,53.37359 -53.588,53.37359 h -50.587 z m 50.3727,88.74162 c 21.6495,0 33.6532,-11.57499 33.6532,-35.36804 0,-23.79304 -12.2181,-35.79674 -33.6532,-35.79674 h -31.081 v 71.16478 z m -182.8421,-23.14999 v -65.59163 h 19.506 v 64.51987 c 0,19.72037 13.9329,26.36527 30.6523,26.36527 16.7195,0 30.438,-6.43055 30.438,-25.72221 v -65.16293 h 19.506 v 64.94858 c 0,32.15276 -21.6495,43.94211 -50.3727,43.94211 -28.7231,0 -49.7296,-11.78935 -49.7296,-43.29906 z m -142.5439,-12.4324 c 0,-33.65322 22.7213,-55.73145 58.3037,-55.73145 35.5824,0 58.0893,21.86388 58.0893,55.73145 0,33.86758 -22.5069,55.73146 -58.0893,55.73146 -35.5824,0 -58.3037,-21.86388 -58.3037,-55.73146 z m 96.6727,0 c 0,-23.57869 -13.9329,-38.15461 -38.1547,-38.15461 -24.2217,0 -38.3689,14.57592 -38.3689,38.15461 0,23.57869 13.9328,38.15461 38.1546,38.15461 24.2217,0 38.369,-14.57592 38.369,-38.15461 z m -191.2018,-53.15923 h 19.506 v 88.52727 h 63.0194 l -0.643,18.00555 h -81.8824 V 581.1798 Z m -126.6819,53.58794 c 0,-30.00925 20.7921,-55.94581 59.5898,-55.94581 17.3625,0 31.081,6.43055 39.4407,12.8611 v 19.93472 0 c -11.1463,-7.71667 -22.9356,-15.00463 -39.8694,-15.00463 -24.6505,0 -39.012,16.50509 -39.012,38.15462 0,21.64952 13.5041,37.51155 38.7976,37.51155 16.7195,0 28.9375,-6.2162 40.0838,-14.57592 v 0 19.93472 c -8.1454,6.00184 -22.7213,12.21805 -41.5842,12.21805 -39.6551,0 -57.6606,-25.29351 -57.6606,-55.0884 z m -107.8189,-40.08378 c 0,-14.14722 10.0745,-23.79305 25.7222,-23.79305 15.6477,0 25.9365,9.64583 25.9365,23.79305 0,14.14721 -10.2888,24.00739 -25.9365,24.00739 -15.6477,0 -25.7222,-9.64582 -25.7222,-24.00739 z m 44.7995,0 c 0,-11.14629 -7.5023,-18.00555 -19.0773,-18.00555 -11.575,0 -19.0773,6.85926 -19.0773,18.00555 0,11.14629 7.5023,18.00554 19.0773,18.00554 11.575,0 19.0773,-6.85925 19.0773,-18.00554 z m -29.1518,-11.14629 h 11.7893 c 6.8593,0 9.6458,3.00092 9.6458,8.14536 0,2.78658 -1.5004,5.7875 -4.9301,6.85926 l 5.5732,6.6449 v 0 c 0,0 -6.2162,0.21436 -6.2162,0.21436 l -4.9301,-6.21621 h -5.5732 v 6.21621 h -5.5731 v -21.86388 z m 11.5749,11.14629 c 3.001,0 4.5014,-0.85741 4.5014,-3.21528 0,-2.35787 -1.2861,-3.21527 -4.287,-3.21527 h -6.2162 v 6.6449 h 6.2162 z m -111.6772,-13.50416 h 31.5097 l 42.0129,106.31847 h -20.3634 l -10.7176,-27.00832 h -54.231 l -10.7175,27.00832 h -20.1491 l 42.2273,-106.31847 z m -4.9301,62.37636 h 40.9412 l -17.3625,-44.15646 h -6.0019 z m -181.1272,-62.37636 h 23.15 l 37.7259,65.80598 36.8685,-65.80598 h 23.5787 v 106.31847 h -19.2917 V 611.4034 h -1.0718 l -39.8694,68.80691 h -1.5004 l -39.4408,-68.80691 h -1.0717 v 75.88052 h -19.0773 z m -117.8935,97.53004 v -19.93471 0 c 15.0046,8.35972 32.3671,13.28981 47.8004,13.28981 16.5051,0 25.0792,-5.57315 25.0792,-14.36157 0,-8.78842 -6.6449,-11.57499 -32.1528,-15.86203 -21.2208,-3.85833 -39.8694,-9.64583 -39.8694,-29.58054 0,-17.57684 14.7903,-33.65322 46.3,-33.65322 13.5041,0 28.7231,3.64398 40.0838,10.28888 v 19.93471 0 c -12.2181,-7.93101 -27.6514,-12.21805 -41.5843,-12.21805 -16.5051,0 -24.4361,5.57315 -24.4361,13.71852 0,9.86018 12.4324,11.78934 31.5097,15.43332 21.2209,3.85833 40.5125,9.43148 40.5125,31.08101 0,13.71851 -8.5741,33.22452 -45.6569,33.22452 -19.9347,0 -35.368,-4.93009 -47.8004,-11.14629 z m -48.6578,-97.53004 h 19.506 v 106.31847 h -19.506 z m -122.6092,0 h 55.5171 c 26.5796,0 39.655,12.8611 39.655,35.79674 0,17.57684 -8.3597,29.36619 -24.2217,33.65322 l 28.2944,36.86851 h -22.9356 l -24.6505,-33.43888 h -32.1527 v 33.43888 h -19.506 z m 54.874,55.73145 c 15.0046,0 20.5778,-8.35972 20.5778,-19.0773 0,-10.71759 -5.5732,-19.07731 -20.5778,-19.07731 h -35.368 V 636.6969 Z M 989.31475,580.96545 h 54.01665 c 25.9365,0 39.4407,13.93286 39.4407,37.2972 0,25.93656 -16.5051,38.36897 -41.1555,38.36897 h -32.5815 v 30.43794 h -19.506 V 580.7511 Z m 52.51615,58.30367 c 14.5759,0 21.2208,-8.14536 21.2208,-20.36341 0,-13.28981 -7.0736,-20.36342 -21.4351,-20.36342 h -32.5815 v 40.72683 h 33.0102 z M 860.06064,650.62977 812.2602,580.96545 h 22.72129 l 34.29628,51.01571 h 1.50046 l 34.72498,-51.01571 h 22.07823 l -48.01479,69.44996 v 36.86851 H 860.06064 Z M 703.79821,580.96545 h 59.16109 c 21.64952,0 34.72498,9.21712 34.72498,26.79397 0,12.21805 -5.57314,21.00647 -19.50601,24.4361 14.36157,4.93009 21.64953,12.64675 21.64953,25.50785 0,21.43518 -15.86203,29.58055 -39.44072,29.58055 h -56.58887 z m 56.58887,44.15646 c 12.21805,0 17.79119,-4.28704 17.79119,-13.71851 0,-9.43148 -6.00185,-13.28981 -17.36249,-13.28981 h -38.36896 v 27.22267 h 37.94026 z m 0.4287,44.79951 c 13.71851,0 19.50601,-4.71573 19.50601,-14.79027 0,-9.21712 -5.57315,-14.57592 -19.07731,-14.57592 h -38.79766 v 29.58055 h 38.36896 z"></path>
</svg>