<?xml version="1.0" encoding="UTF-8"?>
<svg width="1200pt" height="1200pt" version="1.1" viewBox="0 0 1200 1200" xmlns="http://www.w3.org/2000/svg">
 <path d="m164.02 680.76h90.844v-63.141c0-8.4375 3.4219-16.078 9-21.609 5.5312-5.5312 13.219-9 21.609-9h304.31v-53.391h-22.266c-4.9688 0-9.0938-3.5625-10.031-8.25l-13.172-45.516c-4.8281-1.5-9.5156-3.2344-14.109-5.1094-4.5938-1.9219-9.0938-4.0312-13.547-6.3281l-42.281 23.344c-4.0781 2.25-9 1.4062-12.094-1.7344l-39.844-39.844c-3.4219-3.4219-3.8906-8.7188-1.4062-12.656l23.062-41.766c-2.3438-4.4531-4.4531-9-6.3281-13.547-1.9219-4.5938-3.6094-9.2812-5.1094-14.109l-46.406-13.406c-4.4531-1.3125-7.3594-5.3438-7.3594-9.75h-0.046875v-56.344c0-4.9688 3.5156-9.0938 8.25-10.031l45.516-13.172c1.5-4.8281 3.2344-9.5156 5.1094-14.109 1.9219-4.5938 4.0312-9.0938 6.3281-13.547l-23.344-42.281c-2.25-4.0781-1.4062-9 1.7344-12.094l39.844-39.844c3.4219-3.4219 8.7188-3.8906 12.656-1.4062l41.766 23.062c4.4531-2.3438 9-4.4531 13.547-6.3281 4.5938-1.9219 9.2812-3.6094 14.062-5.1094l13.406-46.406c1.2656-4.4531 5.3438-7.3594 9.75-7.3594v-0.046875h64.969c4.9688 0 9.0938 3.5156 10.031 8.25l13.172 45.516c4.8281 1.5 9.5156 3.2344 14.062 5.1094 4.5938 1.9219 9.0938 4.0312 13.547 6.3281l42.281-23.344c4.0781-2.25 9-1.4062 12.094 1.7344l39.844 39.844c3.4219 3.4219 3.8906 8.7188 1.4062 12.656l-23.062 41.766c2.3438 4.4531 4.4531 9 6.3281 13.547 1.9219 4.5938 3.6094 9.2812 5.1094 14.109l46.406 13.406c4.4531 1.3125 7.3594 5.3438 7.3594 9.75h0.046875v56.344c0 4.9688-3.5156 9.0938-8.25 10.031l-45.516 13.172c-1.5 4.8281-3.2344 9.5156-5.1094 14.109-1.9219 4.5938-4.0312 9.0938-6.3281 13.547l23.344 42.281c2.25 4.0781 1.4062 9-1.7344 12.094l-39.844 39.844c-3.4219 3.4219-8.7188 3.8906-12.656 1.4062l-41.766-23.062c-4.4531 2.3438-9 4.4531-13.547 6.3281-4.5938 1.9219-9.2812 3.6094-14.109 5.1094l-13.406 46.406c-1.3125 4.4531-5.3438 7.3594-9.75 7.3594v0.046875l-22.172 0.046875v53.391h304.31c8.4375 0 16.078 3.4219 21.656 9 5.5312 5.5312 9 13.172 9 21.609v63.141h90.844c5.625 0 10.219 4.5469 10.219 10.219v398.81c0 5.625-4.5938 10.219-10.219 10.219l-202.13-0.09375c-5.625 0-10.219-4.5938-10.219-10.219v-398.76c0-5.625 4.5469-10.219 10.219-10.219h90.844v-63.141c0-2.8125-1.125-5.3438-3-7.2188-1.875-1.8281-4.4062-3-7.2188-3l-304.31 0.046875v73.312h90.844c5.625 0 10.219 4.5469 10.219 10.219v398.81c0 5.625-4.5938 10.219-10.219 10.219l-202.08-0.046874c-5.625 0-10.219-4.5938-10.219-10.219v-398.76c0-5.625 4.5469-10.219 10.219-10.219h90.844v-73.312h-304.36c-2.8125 0-5.3438 1.1719-7.2188 3s-3 4.4062-3 7.2188v63.141h90.844c5.625 0 10.219 4.5469 10.219 10.219v398.81c0 5.625-4.5469 10.219-10.219 10.219l-202.08-0.09375c-5.625 0-10.219-4.5938-10.219-10.219l0.046875-398.76c0-5.625 4.5469-10.219 10.172-10.219zm435.98-457.26c-25.781 0-49.078 10.453-66 27.328-16.875 16.875-27.328 40.219-27.328 66s10.453 49.078 27.328 66c16.875 16.875 40.219 27.328 66 27.328s49.078-10.453 66-27.328c16.875-16.875 27.328-40.219 27.328-66s-10.453-49.078-27.328-66c-16.922-16.875-40.219-27.328-66-27.328zm51.562 41.766c-13.172-13.172-31.406-21.328-51.562-21.328s-38.344 8.1562-51.562 21.328c-13.172 13.172-21.328 31.406-21.328 51.562s8.1562 38.344 21.328 51.562c13.172 13.172 31.406 21.375 51.562 21.375 20.109 0 38.344-8.1562 51.562-21.375 13.172-13.172 21.375-31.406 21.375-51.562-0.046875-20.156-8.2031-38.344-21.375-51.562zm-76.406 247.97h49.688l12.703-44.016c0.84375-3.4219 3.5156-6.3281 7.1719-7.3594 5.7656-1.5938 11.531-3.6094 17.203-5.9531 5.5312-2.2969 10.875-4.875 15.984-7.7812 3.0469-1.9219 6.9844-2.1562 10.312-0.32812l40.453 22.312 29.016-29.016-22.312-40.453c-1.6406-3-1.7344-6.75 0.09375-9.9375 2.9531-5.25 5.625-10.734 7.9688-16.406s4.3594-11.438 5.9531-17.203c0.9375-3.2812 3.4688-6.0469 6.9844-7.0781l44.344-12.797v-41.062l-44.016-12.703c-3.4219-0.84375-6.3281-3.5156-7.3594-7.1719-1.5938-5.7656-3.6094-11.531-5.9531-17.203-2.2969-5.5312-4.875-10.875-7.7812-15.984-1.9219-3.0469-2.1562-6.9844-0.32812-10.312l22.312-40.453-29.016-29.016-40.453 22.312c-3 1.6406-6.75 1.7344-9.9375-0.09375-5.25-2.9531-10.734-5.625-16.406-7.9688s-11.438-4.3594-17.203-5.9531c-3.2812-0.9375-6.0469-3.4688-7.0781-6.9844l-12.797-44.344h-49.688l-12.703 44.016c-0.84375 3.4219-3.5156 6.3281-7.1719 7.3594-5.7656 1.5938-11.531 3.6094-17.203 5.9531-5.5312 2.2969-10.875 4.875-15.984 7.7812-3.0469 1.9219-6.9844 2.1562-10.312 0.32812l-40.453-22.312-28.875 29.062 22.312 40.453c1.6406 3 1.7344 6.75-0.046875 9.9375-2.9531 5.25-5.625 10.734-7.9688 16.406s-4.3594 11.438-5.9531 17.203c-0.89062 3.2812-3.4688 6.0469-6.9844 7.0781l-44.344 12.797v41.062l44.016 12.703c3.4219 0.84375 6.3281 3.5156 7.3594 7.1719 1.5938 5.7656 3.6094 11.531 5.9531 17.203 2.2969 5.5312 4.875 10.875 7.7344 15.984 1.9219 3.0469 2.1562 6.9844 0.32812 10.312l-22.312 40.453 29.016 29.016 40.453-22.312c3-1.6406 6.75-1.7344 9.9375 0.09375 5.25 2.9531 10.734 5.625 16.406 8.0156 5.6719 2.3438 11.438 4.3594 17.203 5.9531 3.2812 0.89062 6.0469 3.4688 7.0781 6.9844zm301.74 404.86h116.44c5.625 0 10.219-4.5469 10.219-10.219 0-5.625-4.5469-10.219-10.219-10.219h-116.44c-5.625 0-10.219 4.5469-10.219 10.219 0 5.625 4.5938 10.219 10.219 10.219zm0-47.531h116.44c5.625 0 10.219-4.5469 10.219-10.219 0-5.625-4.5469-10.219-10.219-10.219h-116.44c-5.625 0-10.219 4.5469-10.219 10.219s4.5938 10.219 10.219 10.219zm0-47.438h116.44c5.625 0 10.219-4.5469 10.219-10.219 0-5.625-4.5469-10.219-10.219-10.219h-116.44c-5.625 0-10.219 4.5469-10.219 10.219 0 5.625 4.5938 10.219 10.219 10.219zm0-47.484h116.44c5.625 0 10.219-4.5469 10.219-10.219 0-5.625-4.5469-10.219-10.219-10.219h-116.44c-5.625 0-10.219 4.5469-10.219 10.219 0 5.625 4.5938 10.219 10.219 10.219zm-335.11 142.45h116.44c5.625 0 10.219-4.5469 10.219-10.219 0-5.625-4.5469-10.219-10.219-10.219h-116.44c-5.625 0-10.219 4.5469-10.219 10.219 0 5.625 4.5938 10.219 10.219 10.219zm0-47.531h116.44c5.625 0 10.219-4.5469 10.219-10.219 0-5.625-4.5469-10.219-10.219-10.219h-116.44c-5.625 0-10.219 4.5469-10.219 10.219s4.5938 10.219 10.219 10.219zm0-47.438h116.44c5.625 0 10.219-4.5469 10.219-10.219 0-5.625-4.5469-10.219-10.219-10.219h-116.44c-5.625 0-10.219 4.5469-10.219 10.219 0 5.625 4.5938 10.219 10.219 10.219zm0-47.484h116.44c5.625 0 10.219-4.5469 10.219-10.219 0-5.625-4.5469-10.219-10.219-10.219h-116.44c-5.625 0-10.219 4.5469-10.219 10.219 0 5.625 4.5938 10.219 10.219 10.219zm-335.11 142.45h116.44c5.625 0 10.219-4.5469 10.219-10.219 0-5.625-4.5938-10.219-10.219-10.219h-116.44c-5.625 0-10.219 4.5469-10.219 10.219 0 5.625 4.5938 10.219 10.219 10.219zm0-47.531h116.44c5.625 0 10.219-4.5469 10.219-10.219 0-5.625-4.5938-10.219-10.219-10.219h-116.44c-5.625 0-10.219 4.5469-10.219 10.219s4.5938 10.219 10.219 10.219zm0-47.438h116.44c5.625 0 10.219-4.5469 10.219-10.219 0-5.625-4.5938-10.219-10.219-10.219h-116.44c-5.625 0-10.219 4.5469-10.219 10.219 0 5.625 4.5938 10.219 10.219 10.219zm0-47.484h116.44c5.625 0 10.219-4.5469 10.219-10.219 0-5.625-4.5938-10.219-10.219-10.219h-116.44c-5.625 0-10.219 4.5469-10.219 10.219 0 5.625 4.5938 10.219 10.219 10.219zm771.1 220.45c0-11.812-4.7812-22.547-12.562-30.281-7.7344-7.7344-18.469-12.562-30.281-12.562s-22.547 4.7812-30.281 12.562c-7.7344 7.7344-12.562 18.469-12.562 30.281s4.7812 22.547 12.562 30.281c7.7344 7.7344 18.469 12.562 30.281 12.562s22.547-4.7812 30.281-12.562c7.7812-7.7344 12.562-18.469 12.562-30.281zm-26.953 15.844c4.0312-4.0781 6.5625-9.6562 6.5625-15.844s-2.5312-11.812-6.5625-15.844c-4.0781-4.0312-9.6562-6.5625-15.844-6.5625s-11.812 2.5312-15.844 6.5625c-4.0781 4.0781-6.5625 9.6562-6.5625 15.844s2.5312 11.812 6.5625 15.844c4.0312 4.0781 9.6562 6.5625 15.844 6.5625 6.1406 0 11.766-2.4844 15.844-6.5625zm-307.97-15.844c0-11.812-4.7812-22.547-12.562-30.281-7.7344-7.7344-18.469-12.562-30.281-12.562s-22.547 4.7812-30.281 12.562c-7.7344 7.7344-12.562 18.469-12.562 30.281s4.7812 22.547 12.562 30.281c7.7344 7.7344 18.469 12.562 30.281 12.562s22.547-4.7812 30.281-12.562c7.7344-7.7344 12.562-18.469 12.562-30.281zm-27 15.844c4.0312-4.0781 6.5625-9.6562 6.5625-15.844s-2.5312-11.812-6.5625-15.844c-4.0781-4.0312-9.6562-6.5625-15.844-6.5625s-11.812 2.5312-15.844 6.5625c-4.0781 4.0781-6.5625 9.6562-6.5625 15.844s2.5312 11.812 6.5625 15.844c4.0781 4.0312 9.6562 6.5625 15.844 6.5625s11.812-2.4844 15.844-6.5625zm-307.97-15.844c0-11.812-4.7812-22.547-12.562-30.281-7.7344-7.7344-18.469-12.562-30.281-12.562s-22.547 4.7812-30.281 12.562c-7.7344 7.7344-12.562 18.469-12.562 30.281s4.7812 22.547 12.562 30.281c7.7344 7.7344 18.469 12.562 30.281 12.562s22.547-4.7812 30.281-12.562c7.7812-7.7344 12.562-18.469 12.562-30.281zm-26.953 15.844c4.0781-4.0312 6.5625-9.6562 6.5625-15.844s-2.5312-11.812-6.5625-15.844c-4.0312-4.0781-9.6562-6.5625-15.844-6.5625s-11.812 2.5312-15.844 6.5625c-4.0312 4.0781-6.5625 9.6562-6.5625 15.844s2.5312 11.812 6.5625 15.844c4.0781 4.0312 9.6562 6.5625 15.844 6.5625s11.766-2.4844 15.844-6.5625zm744.84-310.74h-181.69v378.37h181.64zm-334.92 0h-181.69v378.37h181.64zm-334.97 0h-181.69v378.37h181.64z" fill="#fff" fill-rule="evenodd"/>
</svg>
