<?xml version="1.0" encoding="UTF-8"?>
<svg width="1200pt" height="1200pt" version="1.1" viewBox="0 0 1200 1200" xmlns="http://www.w3.org/2000/svg">
 <path d="m994.5 600.14c0 3.2344 0 4.875-1.6406 7.3125 0 1.6406 0 3.2344-0.84375 4.875-0.79688 0.79688-1.6406 0.79688-2.4375 1.6406-0.79688 0.79688-0.79688 2.4375-2.4375 3.2344l-642.19 459.56c-3.2344 2.4375-8.1094 3.2344-12.141 3.2344h-3.2344c-4.875-0.79688-9.75-4.0781-12.984-8.1094l-107.16-150.19c-6.5156-8.9531-4.875-21.938 4.875-28.406l410.02-293.11-410.06-293.16c-9.75-6.5156-11.391-18.656-4.875-28.406l107.16-150.19c3.2344-4.0781 8.1094-7.3125 12.984-8.1094 5.6719-0.79688 10.547 0 15.422 3.2344l642.24 460.36c1.6875 0.79688 1.6875 2.4375 2.4375 3.2344 0.79688 0.79688 1.6406 0.79688 2.4375 1.6406 0.84375 0.79688 0.84375 2.4375 0.84375 4.0781 1.5938 2.3906 1.5938 4.8281 1.5938 7.2656z" fill="#fff"/>
</svg>
