<?xml version="1.0" encoding="UTF-8"?>
<svg width="1200pt" height="1200pt" version="1.1" viewBox="0 0 1200 1200" xmlns="http://www.w3.org/2000/svg">
 <path d="m1072.5 812.81-116.72-45.234v-519c0-3.3281-2.1562-6.2812-5.3438-7.3125l-184.36-58.594c-0.09375-0.046875-0.23438 0-0.32812-0.046875-0.84375-0.23438-1.6875-0.23438-2.5781-0.1875-0.23438 0-0.51562-0.046875-0.75 0h-0.09375l-107.34 20.625c-3.6094 0.70312-6.2344 3.8438-6.2344 7.5469v221.26l-47.25-15c-0.1875-0.046875-0.375 0-0.5625-0.046875-0.5625-0.14062-1.1719-0.14062-1.7812-0.14062s-1.1719 0-1.7812 0.14062c-0.1875 0.046875-0.375 0-0.5625 0.046875l-49.688 15.797v-235.18c0-3.6562-2.625-6.8438-6.2344-7.5469l-107.34-20.625h-0.09375c-0.23438-0.046875-0.46875 0.046875-0.70312 0-0.9375-0.09375-1.7812-0.046875-2.6719 0.1875-0.09375 0.046875-0.1875 0-0.32812 0l-184.36 58.594c-3.1875 1.0312-5.3438 3.9844-5.3438 7.3125v515.26l-112.97 49.406c-2.8125 1.2188-4.5938 3.9844-4.5938 7.0312 0 3.0469 1.7812 5.8125 4.5938 7.0312l490.97 215.9c0.98437 0.42188 2.0156 0.65625 3.0938 0.65625 1.0781 0 2.1562-0.23438 3.1406-0.70312l448.5-203.06c2.8125-1.2656 4.5938-4.125 4.5-7.2188s-2.0156-5.8125-4.875-6.9375zm-132.1-296.48h-168.98v-89.906l168.98 17.062zm0 79.5-168.98 32.391v-96.562h168.98zm-168.98 48 168.98-32.391v75.984l-168.98 44.344zm168.98-215.76-168.98-17.062v-92.859l168.98 35.812zm-168.98 319.55 168.98-44.344v99.094l-168.98 66.094zm168.98-493.4v84.047l-168.98-35.812v-101.95zm-276.32-37.219 92.016-17.672v668.39l-12.562-5.7656v-394.31c0-3.3281-2.1562-6.2812-5.3438-7.3125l-74.109-23.531zm64.125 256.22v58.406l-121.36-25.688v-71.297zm-258.05 206.26h121.36v67.219l-121.36-23.25zm258.05-15.328h-121.36v-62.484l121.36 12.234zm-121.36 15.328h121.36v43.969l-121.36 23.25zm121.36-80.953-121.36-12.234v-64.641l121.36 25.688zm-136.69 65.625h-121.36v-50.25l121.36-12.234zm-121.36 74.906 121.36 23.25v60.984l-121.36-31.828zm136.69 23.25 121.36-23.25v52.406l-121.36 31.828zm-15.328-176.06-121.36 12.234v-51.188l121.36-25.688zm-121.36 221.06 121.36 31.828v85.172l-121.36-47.484v-69.562zm136.69 31.875 121.36-31.828v69.562l-121.36 47.484zm-15.328-333.24-121.36 25.688v-58.406l121.36-38.578zm-59.672-68.391-71.672 22.781c-3.1875 1.0312-5.3438 3.9844-5.3438 7.3125v386.44l-15 3.0938v-671.02l92.016 17.672zm-276.37-7.2188 168.98-17.062v89.906h-168.98zm169.03 88.172v96.562l-168.98-32.391v-64.172zm-169.03 79.781 168.98 32.391v87.938l-168.98-44.344zm169.03-200.44-168.98 17.062v-74.109l168.98-35.812zm-169.03 357.79v-65.531l168.98 44.344v120.84l-168.98-66.094zm169.03-568.26v101.95l-168.98 35.812v-84.047zm196.69 827.29-471.79-207.52 90.797-39.703v26.953c0 3.1406 1.9219 6 4.875 7.125l184.36 72.094h0.09375c0.84375 0.32812 1.7344 0.51562 2.6719 0.51562 0.51562 0 1.0312-0.046874 1.5469-0.14062l21.141-4.3594v12.375c0 3.1406 1.9219 6 4.875 7.125l136.69 53.484c0.89062 0.375 1.8281 0.51562 2.8125 0.51562 0.9375 0 1.875-0.1875 2.8125-0.51562l136.69-53.484c2.9531-1.1719 4.875-3.9844 4.875-7.125v-3.2812l17.016 7.8281c1.0312 0.46875 2.1094 0.70312 3.1875 0.70312 0.9375 0 1.875-0.1875 2.8125-0.51562l184.36-72.094c2.9531-1.1719 4.875-3.9844 4.875-7.125v-23.531l94.172 36.469-428.72 194.11z" fill="#fff"/>
</svg>
