<?xml version="1.0" encoding="UTF-8"?>
<svg width="1200pt" height="1200pt" version="1.1" viewBox="0 0 1200 1200" xmlns="http://www.w3.org/2000/svg">
 <path d="m1031.2 241.5c-0.25391-5.3438-2.7773-10.324-6.9375-13.688-4.1055-3.3125-9.4141-4.7383-14.625-3.9375-2.25 0-233.44 32.25-396.38-131.25-3.5195-3.5508-8.3125-5.5469-13.312-5.5469s-9.793 1.9961-13.312 5.5469c-162.94 163.88-393.75 131.25-396.38 131.25-5.2109-0.80078-10.52 0.625-14.625 3.9375-4.1602 3.3633-6.6836 8.3438-6.9375 13.688-10.125 201.19-12.188 484.12 85.688 618.75 101.81 138.56 301.31 240.94 334.5 251.25 7.207 2.2266 14.918 2.2266 22.125 0 33.188-10.312 233.44-112.5 334.5-251.44 97.875-134.44 95.812-417.38 85.688-618.56zm-115.88 596.44c-95.438 131.25-288.19 229.31-315.38 237.75-27.188-8.4375-219.94-106.88-315.38-237.75-87.75-120.56-88.312-381-78.375-575.44 61.5 4.6875 247.5 5.4375 394.69-131.25 147.19 137.06 333 136.12 393.75 131.25 9 194.44 8.4375 454.88-79.312 575.44zm-158.06-356.25c3.7031 3.3672 5.9062 8.0781 6.1172 13.078 0.21094 5-1.5859 9.8789-4.9922 13.547l-190.88 209.06c-3.5195 3.7461-8.3633 5.9648-13.5 6.1875-5.1055-0.019531-9.9805-2.1172-13.5-5.8125l-98.25-100.5c-4.1719-3.3398-6.7227-8.3008-7.0078-13.637-0.28906-5.3398 1.7188-10.543 5.5117-14.309 3.793-3.7656 9.0117-5.7344 14.348-5.4102 5.332 0.32422 10.277 2.9102 13.586 7.1055l84.375 86.438 178.12-194.81c3.3242-3.5625 7.9023-5.6875 12.766-5.9336s9.6328 1.4102 13.297 4.6211z" fill="#fff"/>
</svg>
